<svg id="Layer_1" data-name="Layer 1" xmlns="http://www.w3.org/2000/svg" viewBox="0 0 196 83"><defs><style>.cls-1{font-size:31.55px;font-family:Montserrat-Bold, Montserrat;font-weight:700;}.cls-1,.cls-8{fill:#1d1d1b;}.cls-2{letter-spacing:-0.01em;}.cls-3{letter-spacing:-0.01em;}.cls-4{letter-spacing:0em;}.cls-5{letter-spacing:0.01em;}.cls-6{letter-spacing:-0.01em;}.cls-7{letter-spacing:-0.02em;}</style></defs><text class="cls-1" transform="translate(2.69 31.87)"> <tspan x="0" y="37.86" xml:space="preserve">    C</tspan><tspan class="cls-2" x="58.84" y="37.86">r</tspan><tspan class="cls-3" x="72.15" y="37.86">e</tspan><tspan class="cls-4" x="91.59" y="37.86">ativ</tspan></text><text class="cls-1" transform="translate(-0.03 38.08)"><tspan class="cls-5">L</tspan><tspan x="19.25" y="0">abo</tspan><tspan class="cls-6" x="81.15" y="0">r</tspan><tspan class="cls-4" x="94.52" y="0">a</tspan><tspan class="cls-7" x="113.99" y="0">t</tspan><tspan x="127.18" y="0">or </tspan></text><text class="cls-1" transform="translate(175.02 38.33)">o</text><path class="cls-8" d="M165.59,17.84v0h5.27v0a9.3,9.3,0,0,1,1.72-3,5.8,5.8,0,1,0-8.72,0A9.68,9.68,0,0,1,165.59,17.84Zm2.64-10.51a.53.53,0,0,1,0,1.06A2.64,2.64,0,0,0,165.59,11a.52.52,0,0,1-.52.53.53.53,0,0,1-.53-.53A3.69,3.69,0,0,1,168.23,7.33Z"/><path class="cls-8" d="M157.54,6.21c1,.36,1.59.64,2.92,1.17.32.12.66.16.87-.11s.21-.73-.11-.86C157.83,5,158.29,5.11,157.83,5A.64.64,0,1,0,157.54,6.21Z"/><path class="cls-8" d="M157.07,10.69c1,.1,1.7.22,3.12.4.34.05.67,0,.81-.31s0-.76-.32-.81c-3.65-.56-3.16-.53-3.65-.56C156.27,9.36,156,10.58,157.07,10.69Z"/><path class="cls-8" d="M157.49,15.5c1-.43,1.59-.66,2.91-1.21.31-.13.58-.34.54-.68s-.36-.67-.68-.55c-3.44,1.34-3,1.12-3.44,1.34C156.14,14.74,156.52,15.93,157.49,15.5Z"/><path class="cls-8" d="M176,7.38c1.33-.53,1.93-.8,2.92-1.17A.64.64,0,1,0,178.67,5c-.47.15,0,0-3.4,1.45-.32.14-.32.6-.11.87S175.71,7.51,176,7.38Z"/><path class="cls-8" d="M175.81,10c-.34,0-.45.5-.32.81a.71.71,0,0,0,.81.32c1.42-.18,2.08-.3,3.12-.41s.8-1.33,0-1.28C179,9.44,179.46,9.41,175.81,10Z"/><path class="cls-8" d="M179.67,14.41c-.44-.22,0,0-3.44-1.34-.32-.13-.64.2-.68.54s.23.55.54.68c1.33.55,1.95.78,2.91,1.21S180.35,14.75,179.67,14.41Z"/><path class="cls-8" d="M172.51,51V23.66l0-2.84H164V51c-6.58,1.8-7.11,8.48-7.11,8.48-1,16.13,24.19,16.14,22.68-.31A9.84,9.84,0,0,0,172.51,51Zm4.21,8.85a28.62,28.62,0,0,1-17,0s-.45-5.29,6.83-7.63c.27-.09.26-.52.26-.82V23.66h2.84v27.7c0,.31,0,.72.26.82C177.32,54.8,176.72,59.81,176.72,59.81Z"/></svg>